<mxfile host="app.diagrams.net" modified="2022-09-23T21:45:49.980Z" agent="5.0 (Windows NT 10.0; Win64; x64) AppleWebKit/537.36 (KHTML, like Gecko) Chrome/105.0.0.0 Safari/537.36 Edg/105.0.1343.42" etag="HcmoUroZQaV-edVaus7a" version="20.3.6" type="github">
  <diagram id="IQGYvlecS8xtpJGzSTE_" name="Page-1">
    <mxGraphModel dx="1021" dy="730" grid="1" gridSize="10" guides="1" tooltips="1" connect="1" arrows="1" fold="1" page="1" pageScale="1" pageWidth="827" pageHeight="1169" math="0" shadow="0">
      <root>
        <mxCell id="0" />
        <mxCell id="1" parent="0" />
        <mxCell id="I2bRiDQB8tPTKC6VnhJ6-15" value="" style="edgeStyle=orthogonalEdgeStyle;rounded=0;orthogonalLoop=1;jettySize=auto;html=1;strokeColor=#788AA3;fontColor=#46495D;fillColor=#B2C9AB;" edge="1" parent="1" source="OBEktxABcL83o_LKNf6v-1" target="I2bRiDQB8tPTKC6VnhJ6-14">
          <mxGeometry relative="1" as="geometry" />
        </mxCell>
        <mxCell id="OBEktxABcL83o_LKNf6v-1" value="&lt;b&gt;INÍCIO&lt;/b&gt;" style="rounded=1;whiteSpace=wrap;html=1;fillColor=#B2C9AB;strokeColor=#788AA3;fontColor=#46495D;" parent="1" vertex="1">
          <mxGeometry x="79" y="35" width="80" height="30" as="geometry" />
        </mxCell>
        <mxCell id="OBEktxABcL83o_LKNf6v-2" value="Acionar o interruptor da lâmpada" style="rounded=0;whiteSpace=wrap;html=1;fillColor=#B2C9AB;strokeColor=#788AA3;fontColor=#46495D;" parent="1" vertex="1">
          <mxGeometry x="524" y="385" width="120" height="60" as="geometry" />
        </mxCell>
        <mxCell id="I2bRiDQB8tPTKC6VnhJ6-25" value="" style="edgeStyle=orthogonalEdgeStyle;rounded=0;orthogonalLoop=1;jettySize=auto;html=1;strokeColor=#788AA3;fontColor=#46495D;fillColor=#B2C9AB;entryX=0.5;entryY=0;entryDx=0;entryDy=0;" edge="1" parent="1" source="OBEktxABcL83o_LKNf6v-3" target="OBEktxABcL83o_LKNf6v-5">
          <mxGeometry relative="1" as="geometry" />
        </mxCell>
        <mxCell id="OBEktxABcL83o_LKNf6v-3" value="A lâmpada acendeu?" style="rhombus;whiteSpace=wrap;html=1;fillColor=#B2C9AB;strokeColor=#788AA3;fontColor=#46495D;" parent="1" vertex="1">
          <mxGeometry x="510" y="590" width="150" height="120" as="geometry" />
        </mxCell>
        <mxCell id="OBEktxABcL83o_LKNf6v-4" value="&lt;b&gt;FIM&lt;/b&gt;" style="rounded=1;whiteSpace=wrap;html=1;fillColor=#B2C9AB;strokeColor=#788AA3;fontColor=#46495D;" parent="1" vertex="1">
          <mxGeometry x="79" y="1085" width="80" height="30" as="geometry" />
        </mxCell>
        <mxCell id="OBEktxABcL83o_LKNf6v-5" value="Trocar a lâmpada" style="swimlane;fontStyle=0;childLayout=stackLayout;horizontal=1;startSize=30;horizontalStack=0;resizeParent=1;resizeParentMax=0;resizeLast=0;collapsible=1;marginBottom=0;fillColor=#B2C9AB;strokeColor=#788AA3;fontColor=#46495D;" parent="1" vertex="1">
          <mxGeometry x="390" y="825" width="390" height="180" as="geometry">
            <mxRectangle x="415" y="620" width="130" height="30" as="alternateBounds" />
          </mxGeometry>
        </mxCell>
        <mxCell id="OBEktxABcL83o_LKNf6v-6" value="1º - Pegar uma escada e posicionar debaixo da lâmpada" style="text;strokeColor=none;fillColor=none;align=left;verticalAlign=middle;spacingLeft=4;spacingRight=4;overflow=hidden;points=[[0,0.5],[1,0.5]];portConstraint=eastwest;rotatable=0;fontColor=#46495D;" parent="OBEktxABcL83o_LKNf6v-5" vertex="1">
          <mxGeometry y="30" width="390" height="30" as="geometry" />
        </mxCell>
        <mxCell id="OBEktxABcL83o_LKNf6v-7" value="2º - Subir na escada e retirar a lâmpada com defeito do bocal" style="text;strokeColor=none;fillColor=none;align=left;verticalAlign=middle;spacingLeft=4;spacingRight=4;overflow=hidden;points=[[0,0.5],[1,0.5]];portConstraint=eastwest;rotatable=0;fontColor=#46495D;" parent="OBEktxABcL83o_LKNf6v-5" vertex="1">
          <mxGeometry y="60" width="390" height="30" as="geometry" />
        </mxCell>
        <mxCell id="OBEktxABcL83o_LKNf6v-8" value="3º - Descer da escada com a lâmpada com defeito" style="text;strokeColor=none;fillColor=none;align=left;verticalAlign=middle;spacingLeft=4;spacingRight=4;overflow=hidden;points=[[0,0.5],[1,0.5]];portConstraint=eastwest;rotatable=0;fontColor=#46495D;" parent="OBEktxABcL83o_LKNf6v-5" vertex="1">
          <mxGeometry y="90" width="390" height="30" as="geometry" />
        </mxCell>
        <mxCell id="I2bRiDQB8tPTKC6VnhJ6-22" value="4º - Subir a escada com a lâmpada nova" style="text;strokeColor=none;fillColor=none;align=left;verticalAlign=middle;spacingLeft=4;spacingRight=4;overflow=hidden;points=[[0,0.5],[1,0.5]];portConstraint=eastwest;rotatable=0;fontColor=#46495D;" vertex="1" parent="OBEktxABcL83o_LKNf6v-5">
          <mxGeometry y="120" width="390" height="30" as="geometry" />
        </mxCell>
        <mxCell id="I2bRiDQB8tPTKC6VnhJ6-23" value="5º - Colocar a lâmpada nova no bocal" style="text;strokeColor=none;fillColor=none;align=left;verticalAlign=middle;spacingLeft=4;spacingRight=4;overflow=hidden;points=[[0,0.5],[1,0.5]];portConstraint=eastwest;rotatable=0;fontColor=#46495D;" vertex="1" parent="OBEktxABcL83o_LKNf6v-5">
          <mxGeometry y="150" width="390" height="30" as="geometry" />
        </mxCell>
        <mxCell id="OBEktxABcL83o_LKNf6v-10" value="" style="endArrow=classic;html=1;rounded=0;exitX=0.5;exitY=1;exitDx=0;exitDy=0;entryX=0.5;entryY=0;entryDx=0;entryDy=0;strokeColor=#788AA3;fontColor=#46495D;" parent="1" source="OBEktxABcL83o_LKNf6v-2" target="OBEktxABcL83o_LKNf6v-3" edge="1">
          <mxGeometry width="50" height="50" relative="1" as="geometry">
            <mxPoint x="649" y="485" as="sourcePoint" />
            <mxPoint x="919" y="515" as="targetPoint" />
          </mxGeometry>
        </mxCell>
        <mxCell id="OBEktxABcL83o_LKNf6v-14" value="&lt;b&gt;Não&lt;/b&gt;" style="text;html=1;strokeColor=none;fillColor=none;align=center;verticalAlign=middle;whiteSpace=wrap;rounded=0;fontColor=#46495D;" parent="1" vertex="1">
          <mxGeometry x="524" y="710" width="60" height="30" as="geometry" />
        </mxCell>
        <mxCell id="OBEktxABcL83o_LKNf6v-15" value="&lt;b&gt;Sim&lt;/b&gt;" style="text;html=1;strokeColor=none;fillColor=none;align=center;verticalAlign=middle;whiteSpace=wrap;rounded=0;fontColor=#46495D;" parent="1" vertex="1">
          <mxGeometry x="649" y="620" width="60" height="30" as="geometry" />
        </mxCell>
        <mxCell id="I2bRiDQB8tPTKC6VnhJ6-13" value="" style="edgeStyle=orthogonalEdgeStyle;rounded=0;orthogonalLoop=1;jettySize=auto;html=1;strokeColor=#788AA3;fontColor=#46495D;fillColor=#B2C9AB;" edge="1" parent="1" source="I2bRiDQB8tPTKC6VnhJ6-1" target="I2bRiDQB8tPTKC6VnhJ6-10">
          <mxGeometry relative="1" as="geometry" />
        </mxCell>
        <mxCell id="I2bRiDQB8tPTKC6VnhJ6-1" value="Entrar no cômodo" style="rounded=0;whiteSpace=wrap;html=1;fillColor=#B2C9AB;strokeColor=#788AA3;fontColor=#46495D;" vertex="1" parent="1">
          <mxGeometry x="319" y="165" width="120" height="30" as="geometry" />
        </mxCell>
        <mxCell id="I2bRiDQB8tPTKC6VnhJ6-6" value="" style="edgeStyle=orthogonalEdgeStyle;rounded=0;orthogonalLoop=1;jettySize=auto;html=1;strokeColor=#788AA3;fontColor=#46495D;fillColor=#B2C9AB;" edge="1" parent="1" source="I2bRiDQB8tPTKC6VnhJ6-2" target="I2bRiDQB8tPTKC6VnhJ6-5">
          <mxGeometry relative="1" as="geometry" />
        </mxCell>
        <mxCell id="I2bRiDQB8tPTKC6VnhJ6-11" value="" style="edgeStyle=orthogonalEdgeStyle;rounded=0;orthogonalLoop=1;jettySize=auto;html=1;strokeColor=#788AA3;fontColor=#46495D;fillColor=#B2C9AB;entryX=0;entryY=0.25;entryDx=0;entryDy=0;" edge="1" parent="1" source="I2bRiDQB8tPTKC6VnhJ6-2" target="I2bRiDQB8tPTKC6VnhJ6-1">
          <mxGeometry relative="1" as="geometry">
            <mxPoint x="280" y="180" as="targetPoint" />
          </mxGeometry>
        </mxCell>
        <mxCell id="I2bRiDQB8tPTKC6VnhJ6-2" value="A lâmpada do cômodo escolhido já foi testado?" style="rhombus;whiteSpace=wrap;html=1;strokeColor=#788AA3;fontColor=#46495D;fillColor=#B2C9AB;" vertex="1" parent="1">
          <mxGeometry x="44" y="285" width="150" height="150" as="geometry" />
        </mxCell>
        <mxCell id="I2bRiDQB8tPTKC6VnhJ6-7" value="" style="edgeStyle=orthogonalEdgeStyle;rounded=0;orthogonalLoop=1;jettySize=auto;html=1;strokeColor=#788AA3;fontColor=#46495D;fillColor=#B2C9AB;" edge="1" parent="1" source="I2bRiDQB8tPTKC6VnhJ6-5" target="OBEktxABcL83o_LKNf6v-4">
          <mxGeometry relative="1" as="geometry" />
        </mxCell>
        <mxCell id="I2bRiDQB8tPTKC6VnhJ6-5" value="Ainda tem algum cômodo que não foi verificada a lâmpada?" style="rhombus;whiteSpace=wrap;html=1;strokeColor=#788AA3;fontColor=#46495D;fillColor=#B2C9AB;" vertex="1" parent="1">
          <mxGeometry x="29" y="675" width="180" height="180" as="geometry" />
        </mxCell>
        <mxCell id="I2bRiDQB8tPTKC6VnhJ6-8" value="&lt;b&gt;Não&lt;/b&gt;" style="text;html=1;strokeColor=none;fillColor=none;align=center;verticalAlign=middle;whiteSpace=wrap;rounded=0;fontColor=#46495D;" vertex="1" parent="1">
          <mxGeometry x="69" y="875" width="60" height="30" as="geometry" />
        </mxCell>
        <mxCell id="I2bRiDQB8tPTKC6VnhJ6-9" value="&lt;b&gt;Sim&lt;/b&gt;" style="text;html=1;strokeColor=none;fillColor=none;align=center;verticalAlign=middle;whiteSpace=wrap;rounded=0;fontColor=#46495D;" vertex="1" parent="1">
          <mxGeometry x="110" y="435" width="60" height="30" as="geometry" />
        </mxCell>
        <mxCell id="I2bRiDQB8tPTKC6VnhJ6-19" value="" style="edgeStyle=orthogonalEdgeStyle;rounded=0;orthogonalLoop=1;jettySize=auto;html=1;strokeColor=#788AA3;fontColor=#46495D;fillColor=#B2C9AB;" edge="1" parent="1" source="I2bRiDQB8tPTKC6VnhJ6-10" target="OBEktxABcL83o_LKNf6v-2">
          <mxGeometry relative="1" as="geometry" />
        </mxCell>
        <mxCell id="I2bRiDQB8tPTKC6VnhJ6-10" value="A lâmpada está acessa?" style="rhombus;whiteSpace=wrap;html=1;strokeColor=#788AA3;fontColor=#46495D;fillColor=#B2C9AB;align=center;" vertex="1" parent="1">
          <mxGeometry x="529" y="135" width="110" height="90" as="geometry" />
        </mxCell>
        <mxCell id="I2bRiDQB8tPTKC6VnhJ6-12" value="&lt;b&gt;Não&lt;/b&gt;" style="text;html=1;strokeColor=none;fillColor=none;align=center;verticalAlign=middle;whiteSpace=wrap;rounded=0;fontColor=#46495D;" vertex="1" parent="1">
          <mxGeometry x="194" y="330" width="60" height="30" as="geometry" />
        </mxCell>
        <mxCell id="I2bRiDQB8tPTKC6VnhJ6-16" value="" style="edgeStyle=orthogonalEdgeStyle;rounded=0;orthogonalLoop=1;jettySize=auto;html=1;strokeColor=#788AA3;fontColor=#46495D;fillColor=#B2C9AB;" edge="1" parent="1" source="I2bRiDQB8tPTKC6VnhJ6-14" target="I2bRiDQB8tPTKC6VnhJ6-2">
          <mxGeometry relative="1" as="geometry" />
        </mxCell>
        <mxCell id="I2bRiDQB8tPTKC6VnhJ6-14" value="Escolher um cômodo" style="rounded=0;whiteSpace=wrap;html=1;strokeColor=#788AA3;fontColor=#46495D;fillColor=#B2C9AB;" vertex="1" parent="1">
          <mxGeometry x="59" y="165" width="120" height="30" as="geometry" />
        </mxCell>
        <mxCell id="I2bRiDQB8tPTKC6VnhJ6-18" value="&lt;b&gt;Sim&lt;/b&gt;" style="text;html=1;strokeColor=none;fillColor=none;align=center;verticalAlign=middle;whiteSpace=wrap;rounded=0;fontColor=#46495D;" vertex="1" parent="1">
          <mxGeometry x="649" y="150" width="60" height="30" as="geometry" />
        </mxCell>
        <mxCell id="I2bRiDQB8tPTKC6VnhJ6-20" value="&lt;b&gt;Não&lt;/b&gt;" style="text;html=1;strokeColor=none;fillColor=none;align=center;verticalAlign=middle;whiteSpace=wrap;rounded=0;fontColor=#46495D;" vertex="1" parent="1">
          <mxGeometry x="529" y="230" width="60" height="30" as="geometry" />
        </mxCell>
        <mxCell id="I2bRiDQB8tPTKC6VnhJ6-29" value="" style="endArrow=classic;html=1;rounded=0;strokeColor=#788AA3;fontColor=#46495D;fillColor=#B2C9AB;exitX=1;exitY=0.5;exitDx=0;exitDy=0;" edge="1" parent="1" source="I2bRiDQB8tPTKC6VnhJ6-10">
          <mxGeometry width="50" height="50" relative="1" as="geometry">
            <mxPoint x="690" y="150" as="sourcePoint" />
            <mxPoint x="120" y="100" as="targetPoint" />
            <Array as="points">
              <mxPoint x="710" y="180" />
              <mxPoint x="710" y="100" />
            </Array>
          </mxGeometry>
        </mxCell>
        <mxCell id="I2bRiDQB8tPTKC6VnhJ6-30" value="" style="endArrow=classic;html=1;rounded=0;strokeColor=#788AA3;fontColor=#46495D;fillColor=#B2C9AB;exitX=1;exitY=0.5;exitDx=0;exitDy=0;" edge="1" parent="1" source="OBEktxABcL83o_LKNf6v-3">
          <mxGeometry width="50" height="50" relative="1" as="geometry">
            <mxPoint x="770" y="590" as="sourcePoint" />
            <mxPoint x="710" y="180" as="targetPoint" />
            <Array as="points">
              <mxPoint x="710" y="650" />
            </Array>
          </mxGeometry>
        </mxCell>
        <mxCell id="I2bRiDQB8tPTKC6VnhJ6-31" value="" style="endArrow=classic;html=1;rounded=0;strokeColor=#788AA3;fontColor=#46495D;fillColor=#B2C9AB;entryX=0;entryY=0.5;entryDx=0;entryDy=0;exitX=0.513;exitY=1.033;exitDx=0;exitDy=0;exitPerimeter=0;" edge="1" parent="1" source="I2bRiDQB8tPTKC6VnhJ6-23" target="OBEktxABcL83o_LKNf6v-2">
          <mxGeometry width="50" height="50" relative="1" as="geometry">
            <mxPoint x="400" y="820" as="sourcePoint" />
            <mxPoint x="450" y="770" as="targetPoint" />
            <Array as="points">
              <mxPoint x="590" y="1060" />
              <mxPoint x="320" y="1060" />
              <mxPoint x="320" y="415" />
            </Array>
          </mxGeometry>
        </mxCell>
        <mxCell id="I2bRiDQB8tPTKC6VnhJ6-32" value="" style="endArrow=classic;html=1;rounded=0;strokeColor=#788AA3;fontColor=#46495D;fillColor=#B2C9AB;exitX=0;exitY=0.5;exitDx=0;exitDy=0;entryX=0;entryY=0.5;entryDx=0;entryDy=0;" edge="1" parent="1" source="I2bRiDQB8tPTKC6VnhJ6-5" target="I2bRiDQB8tPTKC6VnhJ6-14">
          <mxGeometry width="50" height="50" relative="1" as="geometry">
            <mxPoint x="400" y="600" as="sourcePoint" />
            <mxPoint x="450" y="550" as="targetPoint" />
            <Array as="points">
              <mxPoint x="10" y="765" />
              <mxPoint x="10" y="360" />
              <mxPoint x="10" y="180" />
            </Array>
          </mxGeometry>
        </mxCell>
        <mxCell id="I2bRiDQB8tPTKC6VnhJ6-33" value="&lt;b&gt;Sim&lt;/b&gt;" style="text;html=1;strokeColor=none;fillColor=none;align=center;verticalAlign=middle;whiteSpace=wrap;rounded=0;fontColor=#46495D;" vertex="1" parent="1">
          <mxGeometry y="710" width="60" height="30" as="geometry" />
        </mxCell>
      </root>
    </mxGraphModel>
  </diagram>
</mxfile>
